<svg width="19" height="18" viewBox="0 0 19 18" fill="none" xmlns="http://www.w3.org/2000/svg">
    <g clip-path="url(#clip0_535_11845)">
        <path d="M18.1786 13.8923H0.82143C0.73626 13.8926 0.654651 13.9265 0.594427 13.9868C0.534202 14.047 0.500256 14.1286 0.500001 14.2138V15.9495C0.499874 15.9917 0.508101 16.0336 0.524209 16.0726C0.540318 16.1117 0.563989 16.1472 0.593862 16.177C0.623734 16.2069 0.659219 16.2306 0.698274 16.2467C0.737329 16.2628 0.779184 16.271 0.82143 16.2709H18.1786C18.2208 16.271 18.2627 16.2628 18.3017 16.2467C18.3408 16.2306 18.3763 16.2069 18.4061 16.177C18.436 16.1472 18.4597 16.1117 18.4758 16.0726C18.4919 16.0336 18.5001 15.9917 18.5 15.9495V14.2138C18.4997 14.1286 18.4658 14.047 18.4056 13.9868C18.3453 13.9265 18.2637 13.8926 18.1786 13.8923ZM18.1786 10.0416H14.2893C16.4429 6.44484 13.7043 1.67419 9.5 1.72948C5.29571 1.67516 2.55618 6.44387 4.71071 10.0416H0.82143C0.73626 10.0419 0.654651 10.0758 0.594427 10.136C0.534202 10.1963 0.500256 10.2779 0.500001 10.3631V12.1405C0.500256 12.2257 0.534202 12.3073 0.594427 12.3676C0.654651 12.4278 0.73626 12.4617 0.82143 12.462H7.96036C8.04638 12.4609 8.12847 12.4258 8.18869 12.3643C8.24892 12.3029 8.28239 12.2201 8.28178 12.1341L8.2625 10.7327C8.26162 10.6739 8.24469 10.6165 8.21353 10.5666C8.18237 10.5168 8.13817 10.4764 8.08571 10.4498C7.11178 9.96126 6.34679 8.55984 6.34679 7.26126C6.34679 6.42498 6.679 5.62295 7.27034 5.03161C7.86168 4.44026 8.66371 4.10805 9.5 4.10805C10.3363 4.10805 11.1383 4.44026 11.7297 5.03161C12.321 5.62295 12.6532 6.42498 12.6532 7.26126C12.6532 8.45698 12.1164 9.93555 11.0943 10.4498C11.0409 10.4769 10.996 10.5183 10.9648 10.5694C10.9336 10.6205 10.9172 10.6792 10.9175 10.7391V12.1405C10.9174 12.1828 10.9256 12.2247 10.9417 12.2637C10.9578 12.3028 10.9815 12.3382 11.0114 12.3681C11.0412 12.398 11.0767 12.4217 11.1158 12.4378C11.1548 12.4539 11.1967 12.4621 11.2389 12.462H18.1786C18.2637 12.4617 18.3453 12.4278 18.4056 12.3676C18.4658 12.3073 18.4997 12.2257 18.5 12.1405V10.3631C18.4997 10.2779 18.4658 10.1963 18.4056 10.136C18.3453 10.0758 18.2637 10.0419 18.1786 10.0416Z" fill="white"/>
    </g>
    <defs>
        <clipPath id="clip0_535_11845">
            <rect width="18" height="18" fill="white" transform="translate(0.5)"/>
        </clipPath>
    </defs>
</svg>
