<svg width="19" height="18" viewBox="0 0 19 18" fill="none" xmlns="http://www.w3.org/2000/svg">
    <path d="M9.29545 0C6.8595 0 4.87913 1.9171 4.87913 4.27521C4.87913 6.58833 6.74793 8.46042 9.18388 8.54143C9.25826 8.53243 9.33264 8.53243 9.38843 8.54143H9.45351C10.5965 8.50451 11.6799 8.03873 12.4745 7.24258C13.2692 6.44642 13.7129 5.3823 13.7118 4.27521C13.7118 1.9171 11.7314 0 9.29545 0ZM14.0186 10.9346C11.4246 9.26056 7.19421 9.26056 4.58161 10.9346C3.40083 11.6997 2.75 12.7347 2.75 13.8418C2.75 14.9488 3.40083 15.9749 4.57231 16.7309C5.87397 17.577 7.58471 18 9.29545 18C11.0062 18 12.7169 17.577 14.0186 16.7309C15.1901 15.9659 15.8409 14.9398 15.8409 13.8238C15.8316 12.7167 15.1901 11.6907 14.0186 10.9346Z" fill="white"/>
</svg>
