<svg width="33" height="32" viewBox="0 0 33 32" fill="none" xmlns="http://www.w3.org/2000/svg">
    <path d="M27.7281 18.1053H18.6053V27.2282C18.6053 28.379 17.6509 29.3334 16.5 29.3334C15.3491 29.3334 14.3947 28.379 14.3947 27.2282V18.1053H5.27193C4.12105 18.1053 3.16666 17.151 3.16666 16.0001C3.16666 14.8492 4.12105 13.8948 5.27193 13.8948H14.3947V4.77201C14.3947 3.62113 15.3491 2.66675 16.5 2.66675C17.6509 2.66675 18.6053 3.62113 18.6053 4.77201V13.8948H27.7281C28.8789 13.8948 29.8333 14.8492 29.8333 16.0001C29.8333 17.151 28.8789 18.1053 27.7281 18.1053Z" fill="white"/>
</svg>
