<svg width="41" height="40" viewBox="0 0 41 40" fill="none" xmlns="http://www.w3.org/2000/svg">
    <circle cx="20.5" cy="20" r="19.5" fill="#181818" stroke="white"/>
    <path d="M27.6841 17.0418C26.8091 13.1918 23.4508 11.4585 20.5008 11.4585H20.4925C17.5508 11.4585 14.1841 13.1835 13.3091 17.0335C12.3341 21.3335 14.9675 24.9752 17.3508 27.2668C18.1956 28.0845 19.3251 28.5417 20.5008 28.5418C21.6341 28.5418 22.7675 28.1168 23.6425 27.2668C26.0258 24.9752 28.6591 21.3418 27.6841 17.0418ZM20.5008 21.2168C20.1561 21.2168 19.8147 21.1489 19.4963 21.017C19.1778 20.8851 18.8884 20.6917 18.6447 20.448C18.4009 20.2042 18.2075 19.9149 18.0756 19.5964C17.9437 19.2779 17.8758 18.9365 17.8758 18.5918C17.8758 18.2471 17.9437 17.9058 18.0756 17.5873C18.2075 17.2688 18.4009 16.9794 18.6447 16.7357C18.8884 16.4919 19.1778 16.2986 19.4963 16.1666C19.8147 16.0347 20.1561 15.9668 20.5008 15.9668C21.197 15.9668 21.8647 16.2434 22.357 16.7357C22.8493 17.228 23.1258 17.8956 23.1258 18.5918C23.1258 19.288 22.8493 19.9557 22.357 20.448C21.8647 20.9403 21.197 21.2168 20.5008 21.2168Z" fill="white"/>
</svg>
