<svg width="19" height="18" viewBox="0 0 19 18" fill="none" xmlns="http://www.w3.org/2000/svg">
    <path d="M14.9719 6.78663C14.9721 5.73803 14.6739 4.71103 14.1122 3.82557C13.5505 2.94012 12.7484 2.23276 11.7997 1.78612C10.8509 1.33947 9.79473 1.17198 8.75437 1.30321C7.71401 1.43444 6.73247 1.85896 5.92437 2.5272C5.11628 3.19545 4.51499 4.07982 4.19075 5.07703C3.8665 6.07424 3.83267 7.14312 4.09322 8.15884C4.35377 9.17455 4.89794 10.0952 5.66217 10.8132C6.4264 11.5312 7.37914 12.0169 8.40912 12.2136V13.3908H6.70992V15.4644H8.40912V16.8072H10.4827V15.4644H12.1801V13.3908H10.4827V12.2136C11.7456 11.9728 12.8849 11.299 13.7043 10.3083C14.5238 9.31769 14.9721 8.07227 14.9719 6.78663ZM5.99352 6.78663C5.99352 6.10389 6.19596 5.43648 6.57523 4.86877C6.95451 4.30106 7.49359 3.85856 8.12433 3.5972C8.75507 3.33585 9.44914 3.26737 10.1188 3.40044C10.7884 3.53351 11.4036 3.86214 11.8865 4.34478C12.3694 4.82743 12.6984 5.44242 12.8318 6.112C12.9652 6.78158 12.8971 7.47569 12.636 8.10656C12.375 8.73744 11.9328 9.27675 11.3653 9.65632C10.7978 10.0359 10.1305 10.2387 9.44772 10.239C8.53209 10.239 7.65396 9.8753 7.00651 9.22785C6.35906 8.5804 5.99532 7.70227 5.99532 6.78663H5.99352Z" fill="white"/>
</svg>
