<svg width="23" height="22" viewBox="0 0 23 22" fill="none" xmlns="http://www.w3.org/2000/svg">
    <path d="M4.48288 0.916748H18.6699C19.8521 0.916748 20.8194 1.83356 20.8194 2.9541V5.19518C20.8194 6.01012 20.2821 7.0288 19.7447 7.53814L15.1231 11.4091C14.4783 11.9184 14.0484 12.9371 14.0484 13.7521V18.1324C14.0484 18.7436 13.6185 19.5585 13.0811 19.8641L11.5764 20.7809C10.1792 21.5959 8.24458 20.679 8.24458 19.0492V13.6502C8.24458 12.9371 7.81467 12.0203 7.38477 11.511L3.30062 7.43627C2.76324 6.92693 2.33333 6.01012 2.33333 5.39892V3.05597C2.33333 1.83356 3.30062 0.916748 4.48288 0.916748Z" fill="white"/>
</svg>
