<svg width="17" height="18" viewBox="0 0 17 18" fill="none" xmlns="http://www.w3.org/2000/svg">
    <path d="M13.8572 9L16.7971 4.0608H10.9172L8.50003 0L6.08289 4.0608H0.202881L3.14287 9L0.202881 13.9392H6.08289L8.50003 18L10.9172 13.9392H16.7972L13.8572 9ZM14.3149 5.472L13.036 7.62048L11.7572 5.472H14.3149ZM12.2149 9L10.1149 12.528H6.88516L4.78515 9L6.88516 5.472H10.1149L12.2149 9ZM8.50003 2.75904L9.27489 4.0608H7.72518L8.50003 2.75904ZM2.68515 5.472H5.24288L3.96401 7.62048L2.68515 5.472ZM2.68515 12.528L3.96401 10.3795L5.24288 12.528H2.68515ZM8.50003 15.241L7.72518 13.9392H9.27489L8.50003 15.241ZM13.036 10.3795L14.3149 12.528H11.7572L13.036 10.3795Z" fill="white"/>
</svg>
