<svg width="21" height="24" viewBox="0 0 21 24" fill="none" xmlns="http://www.w3.org/2000/svg">
    <path d="M10.5012 0C9.33806 0 8.39185 0.946219 8.39185 2.10938C8.39185 3.27253 9.33806 4.21875 10.5012 4.21875C11.6644 4.21875 12.6106 3.27253 12.6106 2.10938C12.6106 0.946219 11.6644 0 10.5012 0ZM11.1903 5.60156C11.1903 5.19834 10.8799 4.63322 10.3606 4.39214C9.9937 4.22278 9.57797 4.21397 9.16528 4.42031L3.54028 7.23281C3.06221 7.47183 2.76685 7.95 2.76685 8.48438V14.1094C2.76685 14.8828 3.39971 15.5156 4.1731 15.5156C4.94653 15.5156 5.57935 14.8828 5.57935 14.1094V9.35625L8.39185 7.95V10.0171C9.41836 10.214 10.3606 10.5938 11.2043 11.1562V5.67188L11.1903 5.60156ZM20.3169 22.3125L17.5043 13.875C17.3778 13.2281 16.8012 12.75 16.1263 12.75H12.9481C13.6231 13.5656 14.1294 14.5219 14.4247 15.5625H14.9731L17.5607 22.875C17.6945 23.5591 18.3159 24.1011 19.2201 23.9718C19.9107 23.839 20.4709 23.1431 20.3169 22.3125Z" fill="white"/>
    <path d="M6.9856 11.3438V14.1562C8.92402 14.1562 10.5012 15.7335 10.5012 17.6719C10.5012 19.6103 8.92402 21.1875 6.9856 21.1875C5.04717 21.1875 3.46997 19.6103 3.46997 17.6719C3.46997 17.4038 3.5063 17.1452 3.56335 16.8942C2.47045 16.6493 1.61724 15.7705 1.40283 14.6625C0.924658 15.5766 0.657471 16.6031 0.657471 17.6719C0.657471 21.1593 3.49814 24 6.9856 24C10.473 24 13.3137 21.1593 13.3137 17.6719C13.3137 14.0712 10.3286 11.3438 6.9856 11.3438Z" fill="white"/>
</svg>
