<svg width="19" height="18" viewBox="0 0 19 18" fill="none" xmlns="http://www.w3.org/2000/svg">
    <path d="M18.3882 10.2481L15.516 5.31812C15.3784 5.08196 15.099 4.91505 14.8885 4.91505H12.4436C12.2331 4.91505 11.9537 5.08196 11.8162 5.31812L9.65213 9.03256L7.24985 4.90919C7.09696 4.6467 6.82089 4.5012 6.53742 4.50172C6.53222 4.5014 6.52706 4.50093 6.52179 4.50093H4.21218C4.2069 4.50093 4.20175 4.5014 4.19655 4.50172C3.91308 4.50117 3.63705 4.64666 3.48411 4.90919L0.611856 9.83916C0.383379 10.2313 0.516079 10.7344 0.908199 10.9628C1.03347 11.0361 1.17598 11.0747 1.3211 11.0747C1.60394 11.0747 1.87923 10.9285 2.03188 10.6665L3.29874 8.49199V9.42299L2.73176 13.5085C2.68401 13.8527 2.95134 14.1597 3.29878 14.1597V16.6604C3.29878 17.1306 3.66441 17.5311 4.13427 17.5478C4.6276 17.5654 5.03311 17.1707 5.03311 16.6812V14.1596H5.71822V16.6604C5.71822 17.1306 6.08385 17.5311 6.55379 17.5478C7.04712 17.5653 7.45251 17.1706 7.45251 16.6812V14.1596C7.79994 14.1596 8.06728 13.8526 8.01953 13.5084L7.45251 9.42283V8.52175L8.70196 10.6664C8.74448 10.7393 9.03948 11.2548 9.24021 11.3717C9.36549 11.445 9.508 11.4836 9.65311 11.4836C9.93595 11.4836 10.2112 11.3374 10.3639 11.0754L11.595 8.96213L11.5832 16.2356C11.5832 16.7146 11.9714 17.1028 12.4503 17.1028C12.4523 17.1028 12.4542 17.1025 12.4562 17.1025C12.4583 17.1025 12.4602 17.1028 12.4622 17.1028C12.9411 17.1028 13.3294 16.7146 13.3294 16.2356L13.3175 11.8469C13.3175 11.6645 13.4552 11.5051 13.6373 11.4934C13.6841 11.4902 13.731 11.4968 13.7752 11.5125C13.8194 11.5283 13.8599 11.553 13.8941 11.585C13.9284 11.6171 13.9557 11.6558 13.9743 11.6988C13.993 11.7419 14.0026 11.7883 14.0026 11.8352V16.2148C14.0026 16.685 14.3683 17.0855 14.8381 17.1022C15.3315 17.1198 15.737 16.7251 15.737 16.2356V8.96217L16.9681 11.0754C17.1208 11.3374 17.3961 11.4836 17.6789 11.4836C17.8194 11.4836 17.9617 11.4475 18.0918 11.3718C18.484 11.1433 18.6166 10.6402 18.3882 10.2481ZM2.45022 4.14672L2.91217 4.10554C3.17781 4.08188 3.36503 3.83357 3.31303 3.57194C3.23375 3.17215 3.20635 2.61729 3.53828 2.27418C3.53793 2.28863 3.53718 2.30296 3.53718 2.31745C3.53718 3.34811 4.37275 4.18368 5.40342 4.18368C6.43404 4.18368 7.26961 3.34811 7.26961 2.31745C7.26961 2.30296 7.26887 2.28863 7.26847 2.27418C7.60044 2.61733 7.573 3.17215 7.49368 3.57194C7.4418 3.83357 7.62894 4.08188 7.89458 4.10554L8.35649 4.14672C8.60068 4.16849 8.81711 3.99079 8.84325 3.74704C8.90682 3.15518 8.89576 2.26722 8.56104 1.91462C8.06696 1.39417 7.45589 1.3889 7.06113 1.46066C6.7507 0.861163 6.12514 0.451172 5.40346 0.451172C4.68177 0.451172 4.05617 0.861123 3.7457 1.46066C3.35098 1.38894 2.73979 1.39417 2.2458 1.91462C1.91115 2.26722 1.90009 3.15522 1.96351 3.74704C1.98968 3.99079 2.20608 4.16849 2.45022 4.14672Z" fill="white"/>
</svg>
