<svg width="17" height="16" viewBox="0 0 17 16" fill="none" xmlns="http://www.w3.org/2000/svg">
    <circle cx="8.5" cy="7.99989" r="5.46644" fill="white"/>
    <path fill-rule="evenodd" clip-rule="evenodd" d="M1.51565 8.95749C1.31652 8.73087 1.06854 8.55239 0.790395 8.43551C0.705436 8.3999 0.632711 8.34029 0.58113 8.26398C0.52955 8.18767 0.501355 8.09797 0.5 8.00588V7.99365C0.501414 7.90157 0.529633 7.8119 0.581206 7.7356C0.632779 7.6593 0.705472 7.59967 0.790395 7.56402C1.06854 7.44713 1.31652 7.26866 1.51565 7.04204C1.71479 6.81542 1.85988 6.54656 1.94 6.25574C2.02012 5.96491 2.03317 5.6597 1.97818 5.3631C1.92318 5.0665 1.80157 4.78624 1.62252 4.54345C1.55966 4.47156 1.52017 4.38225 1.50929 4.28738C1.49841 4.19251 1.51666 4.09658 1.5616 4.01233C1.60655 3.92807 1.67606 3.85948 1.76092 3.81567C1.84578 3.77185 1.94196 3.75489 2.0367 3.76702C2.33834 3.80533 2.64474 3.77407 2.93242 3.67564C3.22011 3.5772 3.48142 3.41421 3.69634 3.19916C3.91125 2.9841 4.07405 2.7227 4.17226 2.43499C4.27047 2.14728 4.30148 1.8409 4.26291 1.53936C4.25023 1.44624 4.26573 1.35146 4.30741 1.26722C4.34909 1.18299 4.41504 1.11317 4.49676 1.06674C4.57849 1.02032 4.67224 0.999422 4.76595 1.00675C4.85966 1.01408 4.94903 1.04929 5.02255 1.10785C5.26404 1.29272 5.54494 1.41939 5.84339 1.47799C6.14184 1.53659 6.44979 1.52555 6.74327 1.44571C7.03951 1.36696 7.3135 1.22071 7.54376 1.01841C7.77403 0.816107 7.95432 0.563253 8.07053 0.279651C8.10748 0.196421 8.16779 0.125698 8.24415 0.0760597C8.3205 0.0264213 8.40963 0 8.50071 0C8.59179 0 8.68091 0.0264213 8.75726 0.0760597C8.83362 0.125698 8.89393 0.196421 8.93089 0.279651C9.04709 0.563253 9.22738 0.816107 9.45765 1.01841C9.68791 1.22071 9.9619 1.36696 10.2581 1.44571C10.5516 1.52555 10.8596 1.53659 11.158 1.47799C11.4565 1.41939 11.7374 1.29272 11.9789 1.10785C12.0525 1.05058 12.1414 1.01646 12.2344 1.00982C12.3274 1.00318 12.4203 1.02432 12.5013 1.07055C12.5823 1.11678 12.6477 1.18602 12.6893 1.26949C12.7308 1.35296 12.7467 1.44689 12.7347 1.53936C12.6962 1.8409 12.7272 2.14728 12.8254 2.43499C12.9236 2.7227 13.0864 2.9841 13.3013 3.19916C13.5162 3.41421 13.7775 3.5772 14.0652 3.67564C14.3529 3.77407 14.6593 3.80533 14.9609 3.76702C15.0557 3.75489 15.1519 3.77185 15.2367 3.81567C15.3216 3.85948 15.3911 3.92807 15.436 4.01233C15.481 4.09658 15.4992 4.19251 15.4884 4.28738C15.4775 4.38225 15.438 4.47156 15.3751 4.54345C15.1961 4.7864 15.0746 5.0668 15.0198 5.36352C14.965 5.66023 14.9782 5.96553 15.0586 6.25638C15.1389 6.54722 15.2843 6.81604 15.4837 7.04256C15.6831 7.26907 15.9313 7.44737 16.2096 7.56402C16.2945 7.59967 16.3672 7.6593 16.4188 7.7356C16.4704 7.8119 16.4986 7.90157 16.5 7.99365V8.00588C16.4984 8.09824 16.4699 8.18813 16.4179 8.26447C16.3659 8.34081 16.2927 8.40026 16.2073 8.43551C15.9291 8.55239 15.6811 8.73087 15.482 8.95749C15.2829 9.18411 15.1378 9.45297 15.0576 9.74379C14.9775 10.0346 14.9645 10.3398 15.0195 10.6364C15.0745 10.933 15.1961 11.2133 15.3751 11.4561C15.438 11.528 15.4775 11.6173 15.4884 11.7121C15.4992 11.807 15.481 11.9029 15.436 11.9872C15.3911 12.0715 15.3216 12.14 15.2367 12.1839C15.1519 12.2277 15.0557 12.2446 14.9609 12.2325C14.6593 12.1943 14.3529 12.2256 14.0652 12.3241C13.7775 12.4226 13.5162 12.5856 13.3013 12.8007C13.0864 13.0158 12.9236 13.2772 12.8254 13.565C12.7272 13.8527 12.6962 14.1591 12.7347 14.4606C12.7459 14.5528 12.7295 14.6463 12.6876 14.7292C12.6457 14.8121 12.5802 14.8807 12.4994 14.9265C12.4185 14.9724 12.3259 14.9936 12.2331 14.9875C12.1402 14.9814 12.0512 14.9483 11.977 14.8922C11.734 14.7075 11.4518 14.5812 11.1522 14.5229C10.8526 14.4645 10.5436 14.4758 10.249 14.5559C9.95448 14.6359 9.68227 14.7825 9.4534 14.9844C9.22452 15.1863 9.04511 15.4381 8.929 15.7203C8.89205 15.8036 8.83174 15.8743 8.75538 15.9239C8.67902 15.9736 8.5899 16 8.49882 16C8.40774 16 8.31862 15.9736 8.24226 15.9239C8.16591 15.8743 8.1056 15.8036 8.06864 15.7203C7.95254 15.4381 7.77312 15.1863 7.54425 14.9844C7.31538 14.7825 7.04316 14.6359 6.74862 14.5559C6.45408 14.4758 6.14508 14.4645 5.84548 14.5229C5.54588 14.5812 5.26368 14.7075 5.02067 14.8922C4.94646 14.9483 4.85744 14.9814 4.76459 14.9875C4.67175 14.9936 4.57915 14.9724 4.49824 14.9265C4.41741 14.8807 4.35193 14.8121 4.31006 14.7292C4.26818 14.6463 4.25177 14.5528 4.26291 14.4606C4.30146 14.1591 4.27045 13.8527 4.17224 13.565C4.07403 13.2772 3.91124 13.0158 3.69634 12.8007C3.48143 12.5856 3.22013 12.4226 2.93245 12.3241C2.64477 12.2256 2.33836 12.1943 2.0367 12.2325C1.94196 12.2446 1.84578 12.2277 1.76092 12.1839C1.67606 12.14 1.60655 12.0715 1.5616 11.9872C1.51666 11.9029 1.49841 11.807 1.50929 11.7121C1.52017 11.6173 1.55966 11.528 1.62252 11.4561C1.80157 11.2133 1.92318 10.933 1.97818 10.6364C2.03317 10.3398 2.02012 10.0346 1.94 9.74379C1.85988 9.45297 1.71479 9.18411 1.51565 8.95749ZM5.50358 5.00745C4.70919 5.80169 4.26291 6.8789 4.26291 8.00212C4.26291 9.12533 4.70919 10.2025 5.50358 10.9968C6.29797 11.791 7.37539 12.2372 8.49882 12.2372C9.62226 12.2372 10.6997 11.791 11.4941 10.9968C12.2885 10.2025 12.7347 9.12533 12.7347 8.00212C12.7347 6.8789 12.2885 5.80169 11.4941 5.00745C10.6997 4.21322 9.62226 3.76702 8.49882 3.76702C7.37539 3.76702 6.29797 4.21322 5.50358 5.00745ZM8.49882 11.2937C10.3184 11.2937 11.7934 9.81895 11.7934 7.99975C11.7934 6.18054 10.3184 4.70578 8.49882 4.70578C6.67926 4.70578 5.20422 6.18054 5.20422 7.99975C5.20422 9.81895 6.67926 11.2937 8.49882 11.2937ZM6.9 10.24V6.08H7.64203V7.76183L9.14348 6.08H10.0594L8.56377 7.73211L10.1 10.24H9.18986L8.03044 8.31451L7.64203 8.74834V10.24H6.9Z" fill="url(#paint0_linear_1020_15445)"/>
    <defs>
        <linearGradient id="paint0_linear_1020_15445" x1="16.5" y1="0" x2="0.5" y2="16" gradientUnits="userSpaceOnUse">
            <stop stop-color="#8815A2"/>
            <stop offset="1" stop-color="#C068D5"/>
        </linearGradient>
    </defs>
</svg>
