<svg width="25" height="24" viewBox="0 0 25 24" fill="none" xmlns="http://www.w3.org/2000/svg">
    <path fill-rule="evenodd" clip-rule="evenodd" d="M14.1923 20.4243C14.1923 19.271 14.1923 18.3538 14.2524 17.6142C14.2617 17.5017 14.2727 17.3917 14.2854 17.2842C13.7434 17.4551 13.1783 17.5419 12.61 17.5415C10.4709 17.5415 8.62123 16.3332 7.63885 14.5681C7.52978 14.3719 7.5031 14.1405 7.56467 13.9247C7.62624 13.7089 7.77102 13.5264 7.96715 13.4173C8.16329 13.3082 8.39472 13.2816 8.61053 13.3431C8.82634 13.4047 9.00886 13.5495 9.11792 13.7456C9.82446 15.0157 11.1318 15.8492 12.6092 15.8492C13.3724 15.8492 14.0848 15.6283 14.6949 15.2416C14.8938 15.1164 15.0816 14.9725 15.2559 14.8135C15.7145 14.2219 16.2982 13.7391 16.9652 13.3995C17.5558 13.0983 18.2022 12.968 18.9604 12.9062C19.6999 12.8462 20.6172 12.8462 21.7705 12.8462H23.4932C23.5 12.3114 23.5 11.7132 23.5 11.0371V10.713C23.5 8.766 23.5 7.61354 23.2402 6.64469C22.8943 5.35345 22.2145 4.17603 21.2692 3.23078C20.324 2.28553 19.1465 1.60575 17.8553 1.25977C16.8865 1 15.734 1 13.787 1H12.4687C10.9177 1 9.71108 1 8.73885 1.066C7.75138 1.13369 6.94331 1.27246 6.20039 1.57962C4.33477 2.35252 2.85252 3.83477 2.07962 5.70039C1.77246 6.44331 1.63369 7.25138 1.566 8.23885C1.5 9.21192 1.5 10.4177 1.5 11.9678V13.287C1.5 15.234 1.5 16.3865 1.75977 17.3553C2.10575 18.6465 2.78553 19.824 3.73078 20.7692C4.67603 21.7145 5.85345 22.3943 7.14469 22.7402C8.11354 23 9.266 23 11.213 23H11.5371C12.5939 23 13.4578 23 14.1923 22.9746L14.1542 21.2823H14.1923V20.4243ZM16.0928 10.2688C16.4242 10.2688 16.7421 10.1371 16.9765 9.90272C17.2109 9.66834 17.3425 9.35046 17.3425 9.019C17.3425 8.68754 17.2109 8.36966 16.9765 8.13528C16.7421 7.9009 16.4242 7.76923 16.0928 7.76923C15.7613 7.76923 15.4434 7.9009 15.209 8.13528C14.9747 8.36966 14.843 8.68754 14.843 9.019C14.843 9.35046 14.9747 9.66834 15.209 9.90272C15.4434 10.1371 15.7613 10.2688 16.0928 10.2688ZM9.06292 10.2688C9.39438 10.2688 9.71227 10.1371 9.94664 9.90272C10.181 9.66834 10.3127 9.35046 10.3127 9.019C10.3127 8.68754 10.181 8.36966 9.94664 8.13528C9.71227 7.9009 9.39438 7.76923 9.06292 7.76923C8.73146 7.76923 8.41358 7.9009 8.1792 8.13528C7.94483 8.36966 7.81315 8.68754 7.81315 9.019C7.81315 9.35046 7.94483 9.66834 8.1792 9.90272C8.41358 10.1371 8.73146 10.2688 9.06292 10.2688Z" fill="white"/>
    <path d="M16.6015 22.6852C17.8152 22.3603 18.9505 21.7926 19.9387 21.0166C20.9821 20.2764 21.8439 19.309 22.4591 18.1872C23.0742 17.0655 23.4268 15.8188 23.49 14.541H21.7334C20.5742 14.541 19.7475 14.5427 19.0976 14.596C18.4444 14.6493 18.0459 14.75 17.7328 14.9099C17.096 15.2344 16.5782 15.7522 16.2537 16.389C16.0938 16.7021 15.9931 17.1006 15.9398 17.7539C15.8848 18.4172 15.8848 19.2659 15.8848 20.4641V22.8359C16.1361 22.7961 16.373 22.747 16.6015 22.6852Z" fill="white"/>
</svg>
