<svg width="23" height="22" viewBox="0 0 23 22" fill="none" xmlns="http://www.w3.org/2000/svg">
    <path fill-rule="evenodd" clip-rule="evenodd" d="M4.39781 3.89773C6.15987 2.13567 8.54974 1.14575 11.0417 1.14575C12.2755 1.14575 13.4973 1.38878 14.6373 1.86097C15.7772 2.33315 16.813 3.02524 17.6855 3.89773C18.558 4.77021 19.2501 5.806 19.7223 6.94596C20.1945 8.08591 20.4375 9.30771 20.4375 10.5416C20.4375 11.7755 20.1945 12.9973 19.7223 14.1372C19.2501 15.2772 18.558 16.313 17.6855 17.1854C16.813 18.0579 15.7772 18.75 14.6373 19.2222C13.4973 19.6944 12.2755 19.9374 11.0417 19.9374C8.54974 19.9374 6.15987 18.9475 4.39781 17.1854C2.63575 15.4234 1.64583 13.0335 1.64583 10.5416C1.64583 8.04966 2.63575 5.65979 4.39781 3.89773ZM11.0417 2.52075C8.91441 2.52075 6.87428 3.3658 5.37008 4.87C3.86588 6.3742 3.02083 8.41433 3.02083 10.5416C3.02083 12.6688 3.86588 14.709 5.37008 16.2132C6.87428 17.7174 8.91441 18.5624 11.0417 18.5624C12.095 18.5624 13.138 18.355 14.1111 17.9519C15.0842 17.5488 15.9684 16.958 16.7132 16.2132C17.4581 15.4684 18.0489 14.5842 18.4519 13.611C18.855 12.6379 19.0625 11.5949 19.0625 10.5416C19.0625 9.48827 18.855 8.44528 18.4519 7.47214C18.0489 6.49901 17.4581 5.6148 16.7132 4.87C15.9684 4.1252 15.0842 3.53439 14.1111 3.1313C13.138 2.72822 12.095 2.52075 11.0417 2.52075ZM18.3472 17.8471C18.6157 17.5786 19.051 17.5786 19.3195 17.8471L21.1528 19.6804C21.4213 19.9489 21.4213 20.3842 21.1528 20.6527C20.8843 20.9212 20.449 20.9212 20.1805 20.6527L18.3472 18.8194C18.0787 18.5509 18.0787 18.1156 18.3472 17.8471Z" fill="white"/>
</svg>
