<svg width="21" height="20" viewBox="0 0 21 20" fill="none" xmlns="http://www.w3.org/2000/svg">
    <path d="M15.5 0.429932H5.5C2.5 0.429932 0.5 2.42993 0.5 5.42993V11.4299C0.5 14.4299 2.5 16.4299 5.5 16.4299H9.5L13.95 19.3899C14.1002 19.49 14.2747 19.5475 14.455 19.5562C14.6353 19.5649 14.8145 19.5245 14.9736 19.4393C15.1328 19.3541 15.2658 19.2273 15.3585 19.0724C15.4512 18.9175 15.5001 18.7404 15.5 18.5599V16.4299C18.5 16.4299 20.5 14.4299 20.5 11.4299V5.42993C20.5 2.42993 18.5 0.429932 15.5 0.429932ZM14 9.24993H7C6.59 9.24993 6.25 8.90993 6.25 8.49993C6.25 8.08993 6.59 7.74993 7 7.74993H14C14.41 7.74993 14.75 8.08993 14.75 8.49993C14.75 8.90993 14.41 9.24993 14 9.24993Z" fill="white"/>
</svg>
